<mxfile host="drawio-plugin" modified="2022-04-02T03:58:44.211Z" agent="5.0 (Windows NT 6.2; Win64; x64) AppleWebKit/537.36 (KHTML, like Gecko) Chrome/89.0.4389.114 Safari/537.36" etag="0J15GTV_BFi5irw7LiIb" version="15.5.4" type="embed" pages="5"><diagram id="23iRSUPoRavnBvh4doch" name="Вложенность"><mxGraphModel dx="748" dy="747" grid="1" gridSize="10" guides="1" tooltips="1" connect="1" arrows="1" fold="1" page="1" pageScale="1" pageWidth="827" pageHeight="1169" math="0" shadow="0"><root><mxCell id="0"/><mxCell id="1" parent="0"/><mxCell id="ZKy_HeSMdgXoIoZG1bh3-26" value="" style="whiteSpace=wrap;html=1;" parent="1" vertex="1"><mxGeometry x="40" y="40" width="500" height="510" as="geometry"/></mxCell><mxCell id="2" value="" style="whiteSpace=wrap;html=1;" parent="1" vertex="1"><mxGeometry x="70" y="90" width="450" height="450" as="geometry"/></mxCell><mxCell id="3" value="Form&amp;nbsp;" style="text;html=1;strokeColor=none;fillColor=none;align=left;verticalAlign=middle;whiteSpace=wrap;rounded=0;" parent="1" vertex="1"><mxGeometry x="80" y="90" width="60" height="30" as="geometry"/></mxCell><mxCell id="4" value="" style="whiteSpace=wrap;html=1;" parent="1" vertex="1"><mxGeometry x="100" y="150" width="400" height="380" as="geometry"/></mxCell><mxCell id="5" value="Widget" style="text;html=1;strokeColor=none;fillColor=none;align=left;verticalAlign=middle;whiteSpace=wrap;rounded=0;" parent="1" vertex="1"><mxGeometry x="110" y="150" width="130" height="30" as="geometry"/></mxCell><mxCell id="6" value="" style="whiteSpace=wrap;html=1;" parent="1" vertex="1"><mxGeometry x="130" y="200" width="350" height="320" as="geometry"/></mxCell><mxCell id="7" value="Field" style="text;html=1;strokeColor=none;fillColor=none;align=left;verticalAlign=middle;whiteSpace=wrap;rounded=0;" parent="1" vertex="1"><mxGeometry x="140" y="200" width="60" height="30" as="geometry"/></mxCell><mxCell id="8" value="" style="whiteSpace=wrap;html=1;" parent="1" vertex="1"><mxGeometry x="150" y="240" width="310" height="40" as="geometry"/></mxCell><mxCell id="9" value="Label" style="text;html=1;strokeColor=none;fillColor=none;align=left;verticalAlign=middle;whiteSpace=wrap;rounded=0;" parent="1" vertex="1"><mxGeometry x="160" y="240" width="60" height="30" as="geometry"/></mxCell><mxCell id="17" value="" style="whiteSpace=wrap;html=1;" parent="1" vertex="1"><mxGeometry x="150" y="295" width="310" height="40" as="geometry"/></mxCell><mxCell id="18" value="Description" style="text;html=1;strokeColor=none;fillColor=none;align=left;verticalAlign=middle;whiteSpace=wrap;rounded=0;" parent="1" vertex="1"><mxGeometry x="160" y="295" width="60" height="30" as="geometry"/></mxCell><mxCell id="19" value="" style="whiteSpace=wrap;html=1;" parent="1" vertex="1"><mxGeometry x="150" y="350" width="310" height="110" as="geometry"/></mxCell><mxCell id="20" value="Inputs" style="text;html=1;strokeColor=none;fillColor=none;align=left;verticalAlign=middle;whiteSpace=wrap;rounded=0;" parent="1" vertex="1"><mxGeometry x="160" y="350" width="60" height="30" as="geometry"/></mxCell><mxCell id="21" value="" style="whiteSpace=wrap;html=1;" parent="1" vertex="1"><mxGeometry x="150" y="470" width="310" height="40" as="geometry"/></mxCell><mxCell id="22" value="Validate" style="text;html=1;strokeColor=none;fillColor=none;align=left;verticalAlign=middle;whiteSpace=wrap;rounded=0;" parent="1" vertex="1"><mxGeometry x="160" y="470" width="60" height="30" as="geometry"/></mxCell><mxCell id="23" value="" style="whiteSpace=wrap;html=1;" parent="1" vertex="1"><mxGeometry x="160" y="390" width="90" height="50" as="geometry"/></mxCell><mxCell id="24" value="Input" style="text;html=1;strokeColor=none;fillColor=none;align=left;verticalAlign=middle;whiteSpace=wrap;rounded=0;" parent="1" vertex="1"><mxGeometry x="170" y="390" width="60" height="30" as="geometry"/></mxCell><mxCell id="25" value="" style="whiteSpace=wrap;html=1;" parent="1" vertex="1"><mxGeometry x="255" y="390" width="90" height="50" as="geometry"/></mxCell><mxCell id="26" value="Input" style="text;html=1;strokeColor=none;fillColor=none;align=left;verticalAlign=middle;whiteSpace=wrap;rounded=0;" parent="1" vertex="1"><mxGeometry x="265" y="390" width="60" height="30" as="geometry"/></mxCell><mxCell id="ZKy_HeSMdgXoIoZG1bh3-27" value="Forms" style="text;html=1;strokeColor=none;fillColor=none;align=left;verticalAlign=middle;whiteSpace=wrap;rounded=0;" parent="1" vertex="1"><mxGeometry x="50" y="40" width="60" height="30" as="geometry"/></mxCell><mxCell id="ZKy_HeSMdgXoIoZG1bh3-30" value="" style="whiteSpace=wrap;html=1;" parent="1" vertex="1"><mxGeometry x="350" y="390" width="90" height="50" as="geometry"/></mxCell><mxCell id="ZKy_HeSMdgXoIoZG1bh3-29" value="Input" style="text;html=1;strokeColor=none;fillColor=none;align=left;verticalAlign=middle;whiteSpace=wrap;rounded=0;" parent="1" vertex="1"><mxGeometry x="360" y="390" width="60" height="30" as="geometry"/></mxCell></root></mxGraphModel></diagram><diagram id="RGNXz4P0PXvrBOLzP27U" name="Наследование"><mxGraphModel dx="748" dy="747" grid="1" gridSize="10" guides="1" tooltips="1" connect="1" arrows="1" fold="1" page="1" pageScale="1" pageWidth="850" pageHeight="1100" math="0" shadow="0"><root><mxCell id="lMWz7x5XtvbWU3bWG78n-0"/><mxCell id="lMWz7x5XtvbWU3bWG78n-1" parent="lMWz7x5XtvbWU3bWG78n-0"/><mxCell id="lMWz7x5XtvbWU3bWG78n-4" style="edgeStyle=orthogonalEdgeStyle;rounded=0;orthogonalLoop=1;jettySize=auto;html=1;exitX=0.5;exitY=1;exitDx=0;exitDy=0;" parent="lMWz7x5XtvbWU3bWG78n-1" source="lMWz7x5XtvbWU3bWG78n-2" target="lMWz7x5XtvbWU3bWG78n-3" edge="1"><mxGeometry relative="1" as="geometry"/></mxCell><mxCell id="6UYiFgYlJILPUAr-x1c9-1" style="edgeStyle=orthogonalEdgeStyle;rounded=0;orthogonalLoop=1;jettySize=auto;html=1;exitX=0.5;exitY=1;exitDx=0;exitDy=0;" parent="lMWz7x5XtvbWU3bWG78n-1" source="lMWz7x5XtvbWU3bWG78n-2" target="6UYiFgYlJILPUAr-x1c9-0" edge="1"><mxGeometry relative="1" as="geometry"/></mxCell><mxCell id="lMWz7x5XtvbWU3bWG78n-2" value="Core" style="rounded=0;whiteSpace=wrap;html=1;" parent="lMWz7x5XtvbWU3bWG78n-1" vertex="1"><mxGeometry x="320" y="300" width="120" height="60" as="geometry"/></mxCell><mxCell id="lMWz7x5XtvbWU3bWG78n-6" style="edgeStyle=orthogonalEdgeStyle;rounded=0;orthogonalLoop=1;jettySize=auto;html=1;exitX=0.5;exitY=1;exitDx=0;exitDy=0;" parent="lMWz7x5XtvbWU3bWG78n-1" source="lMWz7x5XtvbWU3bWG78n-3" target="lMWz7x5XtvbWU3bWG78n-5" edge="1"><mxGeometry relative="1" as="geometry"/></mxCell><mxCell id="lMWz7x5XtvbWU3bWG78n-3" value="Field" style="rounded=0;whiteSpace=wrap;html=1;" parent="lMWz7x5XtvbWU3bWG78n-1" vertex="1"><mxGeometry x="240" y="430" width="120" height="60" as="geometry"/></mxCell><mxCell id="lMWz7x5XtvbWU3bWG78n-5" value="FieldText" style="rounded=0;whiteSpace=wrap;html=1;" parent="lMWz7x5XtvbWU3bWG78n-1" vertex="1"><mxGeometry x="240" y="550" width="120" height="60" as="geometry"/></mxCell><mxCell id="6UYiFgYlJILPUAr-x1c9-3" value="" style="edgeStyle=orthogonalEdgeStyle;rounded=0;orthogonalLoop=1;jettySize=auto;html=1;" parent="lMWz7x5XtvbWU3bWG78n-1" source="6UYiFgYlJILPUAr-x1c9-0" target="6UYiFgYlJILPUAr-x1c9-2" edge="1"><mxGeometry relative="1" as="geometry"/></mxCell><mxCell id="6UYiFgYlJILPUAr-x1c9-0" value="Widget" style="rounded=0;whiteSpace=wrap;html=1;" parent="lMWz7x5XtvbWU3bWG78n-1" vertex="1"><mxGeometry x="400" y="430" width="120" height="60" as="geometry"/></mxCell><mxCell id="6UYiFgYlJILPUAr-x1c9-2" value="Fieldset" style="rounded=0;whiteSpace=wrap;html=1;" parent="lMWz7x5XtvbWU3bWG78n-1" vertex="1"><mxGeometry x="400" y="550" width="120" height="60" as="geometry"/></mxCell></root></mxGraphModel></diagram><diagram id="7VHnzknuwb63emoQxLaW" name="children -&gt; inputs -&gt; db"><mxGraphModel dx="748" dy="747" grid="1" gridSize="10" guides="1" tooltips="1" connect="1" arrows="1" fold="1" page="1" pageScale="1" pageWidth="850" pageHeight="1100" math="0" shadow="0"><root><mxCell id="kCGaemO6psARmqbFCy-b-0"/><mxCell id="kCGaemO6psARmqbFCy-b-1" parent="kCGaemO6psARmqbFCy-b-0"/><mxCell id="qVVaZgYUeNFZ1Mquf8qg-27" value="" style="rounded=0;whiteSpace=wrap;html=1;" parent="kCGaemO6psARmqbFCy-b-1" vertex="1"><mxGeometry x="720" y="60" width="590" height="600" as="geometry"/></mxCell><mxCell id="qVVaZgYUeNFZ1Mquf8qg-26" value="" style="rounded=0;whiteSpace=wrap;html=1;" parent="kCGaemO6psARmqbFCy-b-1" vertex="1"><mxGeometry x="30" y="60" width="660" height="850" as="geometry"/></mxCell><mxCell id="fWVwcDVs6A8ryP4xzusQ-2" value="" style="edgeStyle=orthogonalEdgeStyle;rounded=0;orthogonalLoop=1;jettySize=auto;html=1;" parent="kCGaemO6psARmqbFCy-b-1" source="fWVwcDVs6A8ryP4xzusQ-0" target="fWVwcDVs6A8ryP4xzusQ-1" edge="1"><mxGeometry relative="1" as="geometry"/></mxCell><mxCell id="fWVwcDVs6A8ryP4xzusQ-0" value="Forms" style="rounded=0;whiteSpace=wrap;html=1;" parent="kCGaemO6psARmqbFCy-b-1" vertex="1"><mxGeometry x="310" y="90" width="120" height="60" as="geometry"/></mxCell><mxCell id="fWVwcDVs6A8ryP4xzusQ-4" value="" style="edgeStyle=orthogonalEdgeStyle;rounded=0;orthogonalLoop=1;jettySize=auto;html=1;exitX=0;exitY=0.5;exitDx=0;exitDy=0;" parent="kCGaemO6psARmqbFCy-b-1" source="fWVwcDVs6A8ryP4xzusQ-1" target="fWVwcDVs6A8ryP4xzusQ-3" edge="1"><mxGeometry relative="1" as="geometry"><mxPoint x="320" y="240" as="sourcePoint"/></mxGeometry></mxCell><mxCell id="fWVwcDVs6A8ryP4xzusQ-6" style="edgeStyle=orthogonalEdgeStyle;rounded=0;orthogonalLoop=1;jettySize=auto;html=1;exitX=1;exitY=0.5;exitDx=0;exitDy=0;" parent="kCGaemO6psARmqbFCy-b-1" source="fWVwcDVs6A8ryP4xzusQ-1" target="fWVwcDVs6A8ryP4xzusQ-5" edge="1"><mxGeometry relative="1" as="geometry"/></mxCell><mxCell id="fWVwcDVs6A8ryP4xzusQ-1" value="Form" style="rounded=0;whiteSpace=wrap;html=1;" parent="kCGaemO6psARmqbFCy-b-1" vertex="1"><mxGeometry x="310" y="210" width="120" height="60" as="geometry"/></mxCell><mxCell id="fWVwcDVs6A8ryP4xzusQ-10" value="" style="edgeStyle=orthogonalEdgeStyle;rounded=0;orthogonalLoop=1;jettySize=auto;html=1;" parent="kCGaemO6psARmqbFCy-b-1" source="fWVwcDVs6A8ryP4xzusQ-3" target="fWVwcDVs6A8ryP4xzusQ-9" edge="1"><mxGeometry relative="1" as="geometry"/></mxCell><mxCell id="qVVaZgYUeNFZ1Mquf8qg-2" style="edgeStyle=orthogonalEdgeStyle;rounded=0;orthogonalLoop=1;jettySize=auto;html=1;exitX=0.5;exitY=1;exitDx=0;exitDy=0;entryX=0.5;entryY=0;entryDx=0;entryDy=0;" parent="kCGaemO6psARmqbFCy-b-1" source="fWVwcDVs6A8ryP4xzusQ-3" target="qVVaZgYUeNFZ1Mquf8qg-1" edge="1"><mxGeometry relative="1" as="geometry"/></mxCell><mxCell id="fWVwcDVs6A8ryP4xzusQ-3" value="Fieldset" style="rounded=0;whiteSpace=wrap;html=1;" parent="kCGaemO6psARmqbFCy-b-1" vertex="1"><mxGeometry x="140" y="330" width="120" height="60" as="geometry"/></mxCell><mxCell id="fWVwcDVs6A8ryP4xzusQ-8" value="" style="edgeStyle=orthogonalEdgeStyle;rounded=0;orthogonalLoop=1;jettySize=auto;html=1;" parent="kCGaemO6psARmqbFCy-b-1" source="fWVwcDVs6A8ryP4xzusQ-5" target="fWVwcDVs6A8ryP4xzusQ-7" edge="1"><mxGeometry relative="1" as="geometry"/></mxCell><mxCell id="fWVwcDVs6A8ryP4xzusQ-5" value="Div" style="rounded=0;whiteSpace=wrap;html=1;" parent="kCGaemO6psARmqbFCy-b-1" vertex="1"><mxGeometry x="460" y="330" width="120" height="60" as="geometry"/></mxCell><mxCell id="qVVaZgYUeNFZ1Mquf8qg-5" style="edgeStyle=orthogonalEdgeStyle;rounded=0;orthogonalLoop=1;jettySize=auto;html=1;exitX=0.5;exitY=1;exitDx=0;exitDy=0;entryX=0.5;entryY=0;entryDx=0;entryDy=0;" parent="kCGaemO6psARmqbFCy-b-1" source="fWVwcDVs6A8ryP4xzusQ-7" target="qVVaZgYUeNFZ1Mquf8qg-3" edge="1"><mxGeometry relative="1" as="geometry"/></mxCell><mxCell id="qVVaZgYUeNFZ1Mquf8qg-6" style="edgeStyle=orthogonalEdgeStyle;rounded=0;orthogonalLoop=1;jettySize=auto;html=1;exitX=0.5;exitY=1;exitDx=0;exitDy=0;entryX=0.5;entryY=0;entryDx=0;entryDy=0;" parent="kCGaemO6psARmqbFCy-b-1" source="fWVwcDVs6A8ryP4xzusQ-7" target="qVVaZgYUeNFZ1Mquf8qg-4" edge="1"><mxGeometry relative="1" as="geometry"/></mxCell><mxCell id="fWVwcDVs6A8ryP4xzusQ-7" value="Join" style="rounded=0;whiteSpace=wrap;html=1;" parent="kCGaemO6psARmqbFCy-b-1" vertex="1"><mxGeometry x="460" y="450" width="120" height="60" as="geometry"/></mxCell><mxCell id="fWVwcDVs6A8ryP4xzusQ-9" value="Field1" style="rounded=0;whiteSpace=wrap;html=1;" parent="kCGaemO6psARmqbFCy-b-1" vertex="1"><mxGeometry x="60" y="450" width="120" height="60" as="geometry"/></mxCell><mxCell id="qVVaZgYUeNFZ1Mquf8qg-1" value="Field2" style="rounded=0;whiteSpace=wrap;html=1;" parent="kCGaemO6psARmqbFCy-b-1" vertex="1"><mxGeometry x="220" y="450" width="120" height="60" as="geometry"/></mxCell><mxCell id="qVVaZgYUeNFZ1Mquf8qg-12" style="edgeStyle=orthogonalEdgeStyle;rounded=0;orthogonalLoop=1;jettySize=auto;html=1;exitX=0.5;exitY=1;exitDx=0;exitDy=0;shape=arrow;fillColor=#000099;" parent="kCGaemO6psARmqbFCy-b-1" source="qVVaZgYUeNFZ1Mquf8qg-3" target="qVVaZgYUeNFZ1Mquf8qg-9" edge="1"><mxGeometry relative="1" as="geometry"/></mxCell><mxCell id="qVVaZgYUeNFZ1Mquf8qg-3" value="Field3" style="rounded=0;whiteSpace=wrap;html=1;" parent="kCGaemO6psARmqbFCy-b-1" vertex="1"><mxGeometry x="380" y="570" width="120" height="60" as="geometry"/></mxCell><mxCell id="qVVaZgYUeNFZ1Mquf8qg-4" value="Field4" style="rounded=0;whiteSpace=wrap;html=1;" parent="kCGaemO6psARmqbFCy-b-1" vertex="1"><mxGeometry x="540" y="570" width="120" height="60" as="geometry"/></mxCell><mxCell id="qVVaZgYUeNFZ1Mquf8qg-7" style="edgeStyle=orthogonalEdgeStyle;rounded=0;orthogonalLoop=1;jettySize=auto;html=1;exitX=0.5;exitY=1;exitDx=0;exitDy=0;entryX=0.5;entryY=0;entryDx=0;entryDy=0;" parent="kCGaemO6psARmqbFCy-b-1" source="qVVaZgYUeNFZ1Mquf8qg-9" target="qVVaZgYUeNFZ1Mquf8qg-10" edge="1"><mxGeometry relative="1" as="geometry"/></mxCell><mxCell id="qVVaZgYUeNFZ1Mquf8qg-8" style="edgeStyle=orthogonalEdgeStyle;rounded=0;orthogonalLoop=1;jettySize=auto;html=1;exitX=0.5;exitY=1;exitDx=0;exitDy=0;entryX=0.5;entryY=0;entryDx=0;entryDy=0;" parent="kCGaemO6psARmqbFCy-b-1" source="qVVaZgYUeNFZ1Mquf8qg-9" target="qVVaZgYUeNFZ1Mquf8qg-11" edge="1"><mxGeometry relative="1" as="geometry"/></mxCell><mxCell id="qVVaZgYUeNFZ1Mquf8qg-9" value="Join" style="rounded=0;whiteSpace=wrap;html=1;fillColor=#76608a;fontColor=#ffffff;strokeColor=#432D57;" parent="kCGaemO6psARmqbFCy-b-1" vertex="1"><mxGeometry x="380" y="700" width="120" height="60" as="geometry"/></mxCell><mxCell id="qVVaZgYUeNFZ1Mquf8qg-10" value="Field5" style="rounded=0;whiteSpace=wrap;html=1;fillColor=#76608a;fontColor=#ffffff;strokeColor=#432D57;" parent="kCGaemO6psARmqbFCy-b-1" vertex="1"><mxGeometry x="300" y="820" width="120" height="60" as="geometry"/></mxCell><mxCell id="qVVaZgYUeNFZ1Mquf8qg-11" value="Field6" style="rounded=0;whiteSpace=wrap;html=1;fillColor=#76608a;fontColor=#ffffff;strokeColor=#432D57;" parent="kCGaemO6psARmqbFCy-b-1" vertex="1"><mxGeometry x="460" y="820" width="120" height="60" as="geometry"/></mxCell><mxCell id="qVVaZgYUeNFZ1Mquf8qg-20" style="edgeStyle=orthogonalEdgeStyle;rounded=0;orthogonalLoop=1;jettySize=auto;html=1;exitX=0.5;exitY=1;exitDx=0;exitDy=0;entryX=0;entryY=0.5;entryDx=0;entryDy=0;" parent="kCGaemO6psARmqbFCy-b-1" source="qVVaZgYUeNFZ1Mquf8qg-13" target="qVVaZgYUeNFZ1Mquf8qg-14" edge="1"><mxGeometry relative="1" as="geometry"/></mxCell><mxCell id="qVVaZgYUeNFZ1Mquf8qg-21" style="edgeStyle=orthogonalEdgeStyle;rounded=0;orthogonalLoop=1;jettySize=auto;html=1;exitX=0.5;exitY=1;exitDx=0;exitDy=0;entryX=0;entryY=0.5;entryDx=0;entryDy=0;" parent="kCGaemO6psARmqbFCy-b-1" source="qVVaZgYUeNFZ1Mquf8qg-13" target="qVVaZgYUeNFZ1Mquf8qg-15" edge="1"><mxGeometry relative="1" as="geometry"/></mxCell><mxCell id="qVVaZgYUeNFZ1Mquf8qg-22" style="edgeStyle=orthogonalEdgeStyle;rounded=0;orthogonalLoop=1;jettySize=auto;html=1;exitX=0.5;exitY=1;exitDx=0;exitDy=0;entryX=0;entryY=0.5;entryDx=0;entryDy=0;" parent="kCGaemO6psARmqbFCy-b-1" source="qVVaZgYUeNFZ1Mquf8qg-13" target="qVVaZgYUeNFZ1Mquf8qg-16" edge="1"><mxGeometry relative="1" as="geometry"/></mxCell><mxCell id="qVVaZgYUeNFZ1Mquf8qg-23" style="edgeStyle=orthogonalEdgeStyle;rounded=0;orthogonalLoop=1;jettySize=auto;html=1;exitX=0.5;exitY=1;exitDx=0;exitDy=0;entryX=0;entryY=0.5;entryDx=0;entryDy=0;" parent="kCGaemO6psARmqbFCy-b-1" source="qVVaZgYUeNFZ1Mquf8qg-13" target="qVVaZgYUeNFZ1Mquf8qg-17" edge="1"><mxGeometry relative="1" as="geometry"/></mxCell><mxCell id="qVVaZgYUeNFZ1Mquf8qg-13" value="Form array" style="rounded=0;whiteSpace=wrap;html=1;fillColor=#0050ef;fontColor=#ffffff;strokeColor=#001DBC;" parent="kCGaemO6psARmqbFCy-b-1" vertex="1"><mxGeometry x="810" y="90" width="120" height="60" as="geometry"/></mxCell><mxCell id="qVVaZgYUeNFZ1Mquf8qg-14" value="Field1" style="rounded=0;whiteSpace=wrap;html=1;" parent="kCGaemO6psARmqbFCy-b-1" vertex="1"><mxGeometry x="910" y="230" width="120" height="60" as="geometry"/></mxCell><mxCell id="qVVaZgYUeNFZ1Mquf8qg-15" value="Field2" style="rounded=0;whiteSpace=wrap;html=1;" parent="kCGaemO6psARmqbFCy-b-1" vertex="1"><mxGeometry x="910" y="320" width="120" height="60" as="geometry"/></mxCell><mxCell id="qVVaZgYUeNFZ1Mquf8qg-24" style="edgeStyle=orthogonalEdgeStyle;rounded=0;orthogonalLoop=1;jettySize=auto;html=1;exitX=1;exitY=0.5;exitDx=0;exitDy=0;" parent="kCGaemO6psARmqbFCy-b-1" source="qVVaZgYUeNFZ1Mquf8qg-16" target="qVVaZgYUeNFZ1Mquf8qg-18" edge="1"><mxGeometry relative="1" as="geometry"/></mxCell><mxCell id="qVVaZgYUeNFZ1Mquf8qg-25" style="edgeStyle=orthogonalEdgeStyle;rounded=0;orthogonalLoop=1;jettySize=auto;html=1;exitX=1;exitY=0.5;exitDx=0;exitDy=0;entryX=0;entryY=0.5;entryDx=0;entryDy=0;" parent="kCGaemO6psARmqbFCy-b-1" source="qVVaZgYUeNFZ1Mquf8qg-16" target="qVVaZgYUeNFZ1Mquf8qg-19" edge="1"><mxGeometry relative="1" as="geometry"/></mxCell><mxCell id="qVVaZgYUeNFZ1Mquf8qg-16" value="Field3 subform array" style="rounded=0;whiteSpace=wrap;html=1;fillColor=#0050ef;fontColor=#ffffff;strokeColor=#001DBC;" parent="kCGaemO6psARmqbFCy-b-1" vertex="1"><mxGeometry x="910" y="430" width="120" height="60" as="geometry"/></mxCell><mxCell id="qVVaZgYUeNFZ1Mquf8qg-17" value="Field4" style="rounded=0;whiteSpace=wrap;html=1;" parent="kCGaemO6psARmqbFCy-b-1" vertex="1"><mxGeometry x="910" y="530" width="120" height="60" as="geometry"/></mxCell><mxCell id="qVVaZgYUeNFZ1Mquf8qg-18" value="Field5" style="rounded=0;whiteSpace=wrap;html=1;" parent="kCGaemO6psARmqbFCy-b-1" vertex="1"><mxGeometry x="1090" y="395" width="120" height="60" as="geometry"/></mxCell><mxCell id="qVVaZgYUeNFZ1Mquf8qg-19" value="Field6" style="rounded=0;whiteSpace=wrap;html=1;" parent="kCGaemO6psARmqbFCy-b-1" vertex="1"><mxGeometry x="1090" y="465" width="120" height="60" as="geometry"/></mxCell><mxCell id="qVVaZgYUeNFZ1Mquf8qg-28" value="Entity Tree" style="text;html=1;strokeColor=none;fillColor=none;align=center;verticalAlign=middle;whiteSpace=wrap;rounded=0;" parent="kCGaemO6psARmqbFCy-b-1" vertex="1"><mxGeometry x="310" y="10" width="120" height="30" as="geometry"/></mxCell><mxCell id="qVVaZgYUeNFZ1Mquf8qg-29" value="Post Data" style="text;html=1;strokeColor=none;fillColor=none;align=center;verticalAlign=middle;whiteSpace=wrap;rounded=0;" parent="kCGaemO6psARmqbFCy-b-1" vertex="1"><mxGeometry x="960" y="10" width="110" height="30" as="geometry"/></mxCell><mxCell id="qVVaZgYUeNFZ1Mquf8qg-30" value="" style="rounded=0;whiteSpace=wrap;html=1;" parent="kCGaemO6psARmqbFCy-b-1" vertex="1"><mxGeometry x="1325" y="60" width="1055" height="600" as="geometry"/></mxCell><mxCell id="qVVaZgYUeNFZ1Mquf8qg-31" style="edgeStyle=orthogonalEdgeStyle;rounded=0;orthogonalLoop=1;jettySize=auto;html=1;exitX=0.5;exitY=1;exitDx=0;exitDy=0;entryX=0;entryY=0.5;entryDx=0;entryDy=0;" parent="kCGaemO6psARmqbFCy-b-1" source="qVVaZgYUeNFZ1Mquf8qg-35" target="qVVaZgYUeNFZ1Mquf8qg-36" edge="1"><mxGeometry relative="1" as="geometry"/></mxCell><mxCell id="qVVaZgYUeNFZ1Mquf8qg-32" style="edgeStyle=orthogonalEdgeStyle;rounded=0;orthogonalLoop=1;jettySize=auto;html=1;exitX=0.5;exitY=1;exitDx=0;exitDy=0;entryX=0;entryY=0.5;entryDx=0;entryDy=0;" parent="kCGaemO6psARmqbFCy-b-1" source="qVVaZgYUeNFZ1Mquf8qg-35" target="qVVaZgYUeNFZ1Mquf8qg-37" edge="1"><mxGeometry relative="1" as="geometry"/></mxCell><mxCell id="qVVaZgYUeNFZ1Mquf8qg-34" style="edgeStyle=orthogonalEdgeStyle;rounded=0;orthogonalLoop=1;jettySize=auto;html=1;exitX=0.5;exitY=1;exitDx=0;exitDy=0;entryX=0;entryY=0.5;entryDx=0;entryDy=0;" parent="kCGaemO6psARmqbFCy-b-1" source="qVVaZgYUeNFZ1Mquf8qg-35" target="qVVaZgYUeNFZ1Mquf8qg-41" edge="1"><mxGeometry relative="1" as="geometry"/></mxCell><mxCell id="qVVaZgYUeNFZ1Mquf8qg-58" style="edgeStyle=orthogonalEdgeStyle;rounded=0;orthogonalLoop=1;jettySize=auto;html=1;exitX=0.5;exitY=1;exitDx=0;exitDy=0;entryX=0;entryY=0.5;entryDx=0;entryDy=0;" parent="kCGaemO6psARmqbFCy-b-1" source="qVVaZgYUeNFZ1Mquf8qg-35" target="qVVaZgYUeNFZ1Mquf8qg-42" edge="1"><mxGeometry relative="1" as="geometry"/></mxCell><mxCell id="qVVaZgYUeNFZ1Mquf8qg-59" style="edgeStyle=orthogonalEdgeStyle;rounded=0;orthogonalLoop=1;jettySize=auto;html=1;exitX=0.5;exitY=1;exitDx=0;exitDy=0;entryX=0;entryY=0.5;entryDx=0;entryDy=0;" parent="kCGaemO6psARmqbFCy-b-1" source="qVVaZgYUeNFZ1Mquf8qg-35" target="qVVaZgYUeNFZ1Mquf8qg-43" edge="1"><mxGeometry relative="1" as="geometry"/></mxCell><mxCell id="qVVaZgYUeNFZ1Mquf8qg-35" value="Form" style="rounded=0;whiteSpace=wrap;html=1;" parent="kCGaemO6psARmqbFCy-b-1" vertex="1"><mxGeometry x="1415" y="90" width="120" height="60" as="geometry"/></mxCell><mxCell id="qVVaZgYUeNFZ1Mquf8qg-36" value="Field1" style="rounded=0;whiteSpace=wrap;html=1;" parent="kCGaemO6psARmqbFCy-b-1" vertex="1"><mxGeometry x="1515" y="230" width="120" height="60" as="geometry"/></mxCell><mxCell id="qVVaZgYUeNFZ1Mquf8qg-37" value="Field2" style="rounded=0;whiteSpace=wrap;html=1;" parent="kCGaemO6psARmqbFCy-b-1" vertex="1"><mxGeometry x="1515" y="320" width="120" height="60" as="geometry"/></mxCell><mxCell id="qVVaZgYUeNFZ1Mquf8qg-41" value="Field4" style="rounded=0;whiteSpace=wrap;html=1;" parent="kCGaemO6psARmqbFCy-b-1" vertex="1"><mxGeometry x="1515" y="530" width="120" height="60" as="geometry"/></mxCell><mxCell id="qVVaZgYUeNFZ1Mquf8qg-42" value="Field5" style="rounded=0;whiteSpace=wrap;html=1;" parent="kCGaemO6psARmqbFCy-b-1" vertex="1"><mxGeometry x="1695" y="395" width="120" height="60" as="geometry"/></mxCell><mxCell id="qVVaZgYUeNFZ1Mquf8qg-43" value="Field6" style="rounded=0;whiteSpace=wrap;html=1;" parent="kCGaemO6psARmqbFCy-b-1" vertex="1"><mxGeometry x="1695" y="465" width="120" height="60" as="geometry"/></mxCell><mxCell id="qVVaZgYUeNFZ1Mquf8qg-44" value="to db" style="text;html=1;strokeColor=none;fillColor=none;align=center;verticalAlign=middle;whiteSpace=wrap;rounded=0;" parent="kCGaemO6psARmqbFCy-b-1" vertex="1"><mxGeometry x="1720" y="20" width="60" height="30" as="geometry"/></mxCell><mxCell id="qVVaZgYUeNFZ1Mquf8qg-45" style="edgeStyle=orthogonalEdgeStyle;rounded=0;orthogonalLoop=1;jettySize=auto;html=1;exitX=0.5;exitY=1;exitDx=0;exitDy=0;entryX=0;entryY=0.5;entryDx=0;entryDy=0;" parent="kCGaemO6psARmqbFCy-b-1" source="qVVaZgYUeNFZ1Mquf8qg-49" target="qVVaZgYUeNFZ1Mquf8qg-50" edge="1"><mxGeometry relative="1" as="geometry"/></mxCell><mxCell id="qVVaZgYUeNFZ1Mquf8qg-46" style="edgeStyle=orthogonalEdgeStyle;rounded=0;orthogonalLoop=1;jettySize=auto;html=1;exitX=0.5;exitY=1;exitDx=0;exitDy=0;entryX=0;entryY=0.5;entryDx=0;entryDy=0;" parent="kCGaemO6psARmqbFCy-b-1" source="qVVaZgYUeNFZ1Mquf8qg-49" target="qVVaZgYUeNFZ1Mquf8qg-51" edge="1"><mxGeometry relative="1" as="geometry"/></mxCell><mxCell id="qVVaZgYUeNFZ1Mquf8qg-47" style="edgeStyle=orthogonalEdgeStyle;rounded=0;orthogonalLoop=1;jettySize=auto;html=1;exitX=0.5;exitY=1;exitDx=0;exitDy=0;entryX=0;entryY=0.5;entryDx=0;entryDy=0;" parent="kCGaemO6psARmqbFCy-b-1" source="qVVaZgYUeNFZ1Mquf8qg-49" target="qVVaZgYUeNFZ1Mquf8qg-54" edge="1"><mxGeometry relative="1" as="geometry"/></mxCell><mxCell id="qVVaZgYUeNFZ1Mquf8qg-48" style="edgeStyle=orthogonalEdgeStyle;rounded=0;orthogonalLoop=1;jettySize=auto;html=1;exitX=0.5;exitY=1;exitDx=0;exitDy=0;entryX=0;entryY=0.5;entryDx=0;entryDy=0;" parent="kCGaemO6psARmqbFCy-b-1" source="qVVaZgYUeNFZ1Mquf8qg-49" target="qVVaZgYUeNFZ1Mquf8qg-55" edge="1"><mxGeometry relative="1" as="geometry"/></mxCell><mxCell id="qVVaZgYUeNFZ1Mquf8qg-49" value="Form" style="rounded=0;whiteSpace=wrap;html=1;" parent="kCGaemO6psARmqbFCy-b-1" vertex="1"><mxGeometry x="1850" y="90" width="120" height="60" as="geometry"/></mxCell><mxCell id="qVVaZgYUeNFZ1Mquf8qg-50" value="Field1" style="rounded=0;whiteSpace=wrap;html=1;" parent="kCGaemO6psARmqbFCy-b-1" vertex="1"><mxGeometry x="1950" y="230" width="120" height="60" as="geometry"/></mxCell><mxCell id="qVVaZgYUeNFZ1Mquf8qg-51" value="Field2" style="rounded=0;whiteSpace=wrap;html=1;" parent="kCGaemO6psARmqbFCy-b-1" vertex="1"><mxGeometry x="1950" y="320" width="120" height="60" as="geometry"/></mxCell><mxCell id="qVVaZgYUeNFZ1Mquf8qg-54" value="Field3" style="rounded=0;whiteSpace=wrap;html=1;" parent="kCGaemO6psARmqbFCy-b-1" vertex="1"><mxGeometry x="1950" y="430" width="120" height="60" as="geometry"/></mxCell><mxCell id="qVVaZgYUeNFZ1Mquf8qg-55" value="Field4" style="rounded=0;whiteSpace=wrap;html=1;" parent="kCGaemO6psARmqbFCy-b-1" vertex="1"><mxGeometry x="1950" y="530" width="120" height="60" as="geometry"/></mxCell><mxCell id="6FStNxvI7CIo2ESB-A0m-0" value="Subform" style="text;html=1;strokeColor=none;fillColor=none;align=center;verticalAlign=middle;whiteSpace=wrap;rounded=0;" parent="kCGaemO6psARmqbFCy-b-1" vertex="1"><mxGeometry x="460" y="650" width="60" height="30" as="geometry"/></mxCell></root></mxGraphModel></diagram><diagram id="-ei3TJJguyphGo4NwBIO" name="Данные"><mxGraphModel dx="748" dy="747" grid="1" gridSize="10" guides="1" tooltips="1" connect="1" arrows="1" fold="1" page="1" pageScale="1" pageWidth="850" pageHeight="1100" math="0" shadow="0"><root><mxCell id="LN0sOUL7FmbtUSK-J04M-0"/><mxCell id="LN0sOUL7FmbtUSK-J04M-1" parent="LN0sOUL7FmbtUSK-J04M-0"/><mxCell id="yyJXoSy9ZZGzqUCP-eUh-29" value="" style="rounded=0;whiteSpace=wrap;html=1;" parent="LN0sOUL7FmbtUSK-J04M-1" vertex="1"><mxGeometry x="570" y="510" width="160" height="80" as="geometry"/></mxCell><mxCell id="yyJXoSy9ZZGzqUCP-eUh-23" value="" style="rounded=0;whiteSpace=wrap;html=1;" parent="LN0sOUL7FmbtUSK-J04M-1" vertex="1"><mxGeometry x="570" y="420" width="160" height="80" as="geometry"/></mxCell><mxCell id="yyJXoSy9ZZGzqUCP-eUh-27" style="edgeStyle=orthogonalEdgeStyle;rounded=0;orthogonalLoop=1;jettySize=auto;html=1;exitX=0.5;exitY=1;exitDx=0;exitDy=0;entryX=0.5;entryY=0;entryDx=0;entryDy=0;" parent="LN0sOUL7FmbtUSK-J04M-1" source="yyJXoSy9ZZGzqUCP-eUh-22" target="yyJXoSy9ZZGzqUCP-eUh-23" edge="1"><mxGeometry relative="1" as="geometry"/></mxCell><mxCell id="yyJXoSy9ZZGzqUCP-eUh-22" value="" style="rounded=0;whiteSpace=wrap;html=1;" parent="LN0sOUL7FmbtUSK-J04M-1" vertex="1"><mxGeometry x="570" y="180" width="160" height="200" as="geometry"/></mxCell><mxCell id="LN0sOUL7FmbtUSK-J04M-33" style="edgeStyle=orthogonalEdgeStyle;rounded=0;orthogonalLoop=1;jettySize=auto;html=1;exitX=0.5;exitY=1;exitDx=0;exitDy=0;entryX=0.5;entryY=0;entryDx=0;entryDy=0;" parent="LN0sOUL7FmbtUSK-J04M-1" source="LN0sOUL7FmbtUSK-J04M-2" target="LN0sOUL7FmbtUSK-J04M-30" edge="1"><mxGeometry relative="1" as="geometry"/></mxCell><mxCell id="LN0sOUL7FmbtUSK-J04M-2" value="DATABASE" style="rounded=0;whiteSpace=wrap;html=1;" parent="LN0sOUL7FmbtUSK-J04M-1" vertex="1"><mxGeometry x="340" y="150" width="120" height="60" as="geometry"/></mxCell><mxCell id="LN0sOUL7FmbtUSK-J04M-3" value="FORM" style="rounded=0;whiteSpace=wrap;html=1;" parent="LN0sOUL7FmbtUSK-J04M-1" vertex="1"><mxGeometry x="340" y="490" width="120" height="60" as="geometry"/></mxCell><mxCell id="LN0sOUL7FmbtUSK-J04M-7" style="edgeStyle=orthogonalEdgeStyle;rounded=0;orthogonalLoop=1;jettySize=auto;html=1;" parent="LN0sOUL7FmbtUSK-J04M-1" source="LN0sOUL7FmbtUSK-J04M-5" target="LN0sOUL7FmbtUSK-J04M-3" edge="1"><mxGeometry relative="1" as="geometry"/></mxCell><mxCell id="LN0sOUL7FmbtUSK-J04M-5" value="FILTER" style="rounded=0;whiteSpace=wrap;html=1;fillColor=#60a917;fontColor=#ffffff;strokeColor=#2D7600;" parent="LN0sOUL7FmbtUSK-J04M-1" vertex="1"><mxGeometry x="340" y="380" width="120" height="60" as="geometry"/></mxCell><mxCell id="LN0sOUL7FmbtUSK-J04M-8" style="edgeStyle=orthogonalEdgeStyle;rounded=0;orthogonalLoop=1;jettySize=auto;html=1;exitX=0.5;exitY=1;exitDx=0;exitDy=0;entryX=0.5;entryY=0;entryDx=0;entryDy=0;" parent="LN0sOUL7FmbtUSK-J04M-1" source="LN0sOUL7FmbtUSK-J04M-9" target="LN0sOUL7FmbtUSK-J04M-12" edge="1"><mxGeometry relative="1" as="geometry"/></mxCell><mxCell id="LN0sOUL7FmbtUSK-J04M-9" value="POST" style="rounded=0;whiteSpace=wrap;html=1;" parent="LN0sOUL7FmbtUSK-J04M-1" vertex="1"><mxGeometry x="590" y="200" width="120" height="60" as="geometry"/></mxCell><mxCell id="LN0sOUL7FmbtUSK-J04M-14" style="edgeStyle=orthogonalEdgeStyle;rounded=0;orthogonalLoop=1;jettySize=auto;html=1;exitX=0.5;exitY=1;exitDx=0;exitDy=0;" parent="LN0sOUL7FmbtUSK-J04M-1" source="LN0sOUL7FmbtUSK-J04M-10" target="LN0sOUL7FmbtUSK-J04M-13" edge="1"><mxGeometry relative="1" as="geometry"/></mxCell><mxCell id="LN0sOUL7FmbtUSK-J04M-10" value="SAVE" style="rounded=0;whiteSpace=wrap;html=1;" parent="LN0sOUL7FmbtUSK-J04M-1" vertex="1"><mxGeometry x="590" y="700" width="120" height="60" as="geometry"/></mxCell><mxCell id="LN0sOUL7FmbtUSK-J04M-12" value="FILTER" style="rounded=0;whiteSpace=wrap;html=1;fillColor=#60a917;fontColor=#ffffff;strokeColor=#2D7600;" parent="LN0sOUL7FmbtUSK-J04M-1" vertex="1"><mxGeometry x="590" y="300" width="120" height="60" as="geometry"/></mxCell><mxCell id="LN0sOUL7FmbtUSK-J04M-13" value="SAVEAFTER" style="rounded=0;whiteSpace=wrap;html=1;" parent="LN0sOUL7FmbtUSK-J04M-1" vertex="1"><mxGeometry x="590" y="790" width="120" height="60" as="geometry"/></mxCell><mxCell id="LN0sOUL7FmbtUSK-J04M-21" style="edgeStyle=orthogonalEdgeStyle;rounded=0;orthogonalLoop=1;jettySize=auto;html=1;exitX=0.5;exitY=1;exitDx=0;exitDy=0;" parent="LN0sOUL7FmbtUSK-J04M-1" source="LN0sOUL7FmbtUSK-J04M-18" target="LN0sOUL7FmbtUSK-J04M-10" edge="1"><mxGeometry relative="1" as="geometry"/></mxCell><mxCell id="LN0sOUL7FmbtUSK-J04M-18" value="SAVEBEFORE" style="rounded=0;whiteSpace=wrap;html=1;" parent="LN0sOUL7FmbtUSK-J04M-1" vertex="1"><mxGeometry x="590" y="610" width="120" height="60" as="geometry"/></mxCell><mxCell id="LN0sOUL7FmbtUSK-J04M-22" style="edgeStyle=orthogonalEdgeStyle;rounded=0;orthogonalLoop=1;jettySize=auto;html=1;exitX=0.5;exitY=1;exitDx=0;exitDy=0;entryX=0.5;entryY=0;entryDx=0;entryDy=0;" parent="LN0sOUL7FmbtUSK-J04M-1" source="LN0sOUL7FmbtUSK-J04M-23" target="LN0sOUL7FmbtUSK-J04M-26" edge="1"><mxGeometry relative="1" as="geometry"/></mxCell><mxCell id="LN0sOUL7FmbtUSK-J04M-23" value="POST" style="rounded=0;whiteSpace=wrap;html=1;" parent="LN0sOUL7FmbtUSK-J04M-1" vertex="1"><mxGeometry x="110" y="150" width="120" height="60" as="geometry"/></mxCell><mxCell id="LN0sOUL7FmbtUSK-J04M-24" value="FORM" style="rounded=0;whiteSpace=wrap;html=1;" parent="LN0sOUL7FmbtUSK-J04M-1" vertex="1"><mxGeometry x="110" y="490" width="120" height="60" as="geometry"/></mxCell><mxCell id="nLCzj5DxjsOhcZV8HZYW-6" style="edgeStyle=orthogonalEdgeStyle;rounded=0;orthogonalLoop=1;jettySize=auto;html=1;exitX=0.5;exitY=1;exitDx=0;exitDy=0;" parent="LN0sOUL7FmbtUSK-J04M-1" source="LN0sOUL7FmbtUSK-J04M-26" target="nLCzj5DxjsOhcZV8HZYW-5" edge="1"><mxGeometry relative="1" as="geometry"/></mxCell><mxCell id="LN0sOUL7FmbtUSK-J04M-26" value="FILTER1" style="rounded=0;whiteSpace=wrap;html=1;fillColor=#60a917;fontColor=#ffffff;strokeColor=#2D7600;" parent="LN0sOUL7FmbtUSK-J04M-1" vertex="1"><mxGeometry x="110" y="270" width="120" height="60" as="geometry"/></mxCell><mxCell id="LN0sOUL7FmbtUSK-J04M-28" value="Отправка данных с формы" style="text;html=1;strokeColor=none;fillColor=none;align=center;verticalAlign=middle;whiteSpace=wrap;rounded=0;" parent="LN0sOUL7FmbtUSK-J04M-1" vertex="1"><mxGeometry x="110" y="80" width="120" height="30" as="geometry"/></mxCell><mxCell id="LN0sOUL7FmbtUSK-J04M-29" value="Начальное открытие формы" style="text;html=1;strokeColor=none;fillColor=none;align=center;verticalAlign=middle;whiteSpace=wrap;rounded=0;" parent="LN0sOUL7FmbtUSK-J04M-1" vertex="1"><mxGeometry x="340" y="80" width="120" height="30" as="geometry"/></mxCell><mxCell id="LN0sOUL7FmbtUSK-J04M-34" style="edgeStyle=orthogonalEdgeStyle;rounded=0;orthogonalLoop=1;jettySize=auto;html=1;exitX=0.5;exitY=1;exitDx=0;exitDy=0;entryX=0.5;entryY=0;entryDx=0;entryDy=0;" parent="LN0sOUL7FmbtUSK-J04M-1" source="LN0sOUL7FmbtUSK-J04M-30" target="LN0sOUL7FmbtUSK-J04M-5" edge="1"><mxGeometry relative="1" as="geometry"/></mxCell><mxCell id="LN0sOUL7FmbtUSK-J04M-30" value="DATABASE2POST" style="rounded=0;whiteSpace=wrap;html=1;fillColor=#0050ef;fontColor=#ffffff;strokeColor=#001DBC;" parent="LN0sOUL7FmbtUSK-J04M-1" vertex="1"><mxGeometry x="340" y="270" width="120" height="60" as="geometry"/></mxCell><mxCell id="LN0sOUL7FmbtUSK-J04M-37" style="edgeStyle=orthogonalEdgeStyle;rounded=0;orthogonalLoop=1;jettySize=auto;html=1;exitX=0.5;exitY=1;exitDx=0;exitDy=0;entryX=0.5;entryY=0;entryDx=0;entryDy=0;" parent="LN0sOUL7FmbtUSK-J04M-1" source="LN0sOUL7FmbtUSK-J04M-35" target="LN0sOUL7FmbtUSK-J04M-18" edge="1"><mxGeometry relative="1" as="geometry"/></mxCell><mxCell id="LN0sOUL7FmbtUSK-J04M-35" value="POST2DATABASE" style="rounded=0;whiteSpace=wrap;html=1;fillColor=#0050ef;fontColor=#ffffff;strokeColor=#001DBC;" parent="LN0sOUL7FmbtUSK-J04M-1" vertex="1"><mxGeometry x="590" y="520" width="120" height="60" as="geometry"/></mxCell><mxCell id="LN0sOUL7FmbtUSK-J04M-38" value="Сохранение данных в базу" style="text;html=1;strokeColor=none;fillColor=none;align=center;verticalAlign=middle;whiteSpace=wrap;rounded=0;" parent="LN0sOUL7FmbtUSK-J04M-1" vertex="1"><mxGeometry x="590" y="130" width="120" height="30" as="geometry"/></mxCell><mxCell id="T2fhLunxe_QvUuNVpg1X-2" style="edgeStyle=orthogonalEdgeStyle;rounded=0;orthogonalLoop=1;jettySize=auto;html=1;exitX=0.5;exitY=1;exitDx=0;exitDy=0;entryX=0.5;entryY=0;entryDx=0;entryDy=0;" parent="LN0sOUL7FmbtUSK-J04M-1" source="T2fhLunxe_QvUuNVpg1X-0" target="LN0sOUL7FmbtUSK-J04M-35" edge="1"><mxGeometry relative="1" as="geometry"/></mxCell><mxCell id="nLCzj5DxjsOhcZV8HZYW-12" style="edgeStyle=orthogonalEdgeStyle;rounded=0;orthogonalLoop=1;jettySize=auto;html=1;exitX=1;exitY=0.5;exitDx=0;exitDy=0;entryX=0;entryY=0.5;entryDx=0;entryDy=0;" parent="LN0sOUL7FmbtUSK-J04M-1" source="T2fhLunxe_QvUuNVpg1X-0" target="nLCzj5DxjsOhcZV8HZYW-11" edge="1"><mxGeometry relative="1" as="geometry"/></mxCell><mxCell id="yyJXoSy9ZZGzqUCP-eUh-28" style="edgeStyle=orthogonalEdgeStyle;rounded=0;orthogonalLoop=1;jettySize=auto;html=1;exitX=1;exitY=0.5;exitDx=0;exitDy=0;entryX=0;entryY=0.5;entryDx=0;entryDy=0;" parent="LN0sOUL7FmbtUSK-J04M-1" source="T2fhLunxe_QvUuNVpg1X-0" target="nLCzj5DxjsOhcZV8HZYW-22" edge="1"><mxGeometry relative="1" as="geometry"/></mxCell><mxCell id="yyJXoSy9ZZGzqUCP-eUh-54" style="edgeStyle=orthogonalEdgeStyle;rounded=0;orthogonalLoop=1;jettySize=auto;html=1;exitX=1;exitY=0.5;exitDx=0;exitDy=0;entryX=0;entryY=0.5;entryDx=0;entryDy=0;" parent="LN0sOUL7FmbtUSK-J04M-1" source="T2fhLunxe_QvUuNVpg1X-0" target="yyJXoSy9ZZGzqUCP-eUh-53" edge="1"><mxGeometry relative="1" as="geometry"/></mxCell><mxCell id="T2fhLunxe_QvUuNVpg1X-0" value="VALIDATOR+&lt;br&gt;MESSAGE" style="rounded=0;whiteSpace=wrap;html=1;" parent="LN0sOUL7FmbtUSK-J04M-1" vertex="1"><mxGeometry x="590" y="430" width="120" height="60" as="geometry"/></mxCell><mxCell id="nLCzj5DxjsOhcZV8HZYW-7" style="edgeStyle=orthogonalEdgeStyle;rounded=0;orthogonalLoop=1;jettySize=auto;html=1;exitX=0.5;exitY=1;exitDx=0;exitDy=0;" parent="LN0sOUL7FmbtUSK-J04M-1" source="nLCzj5DxjsOhcZV8HZYW-5" target="LN0sOUL7FmbtUSK-J04M-24" edge="1"><mxGeometry relative="1" as="geometry"/></mxCell><mxCell id="nLCzj5DxjsOhcZV8HZYW-5" value="FILTER2" style="rounded=0;whiteSpace=wrap;html=1;fillColor=#60a917;fontColor=#ffffff;strokeColor=#2D7600;" parent="LN0sOUL7FmbtUSK-J04M-1" vertex="1"><mxGeometry x="110" y="380" width="120" height="60" as="geometry"/></mxCell><mxCell id="yyJXoSy9ZZGzqUCP-eUh-26" style="edgeStyle=orthogonalEdgeStyle;rounded=0;orthogonalLoop=1;jettySize=auto;html=1;exitX=1;exitY=0.5;exitDx=0;exitDy=0;" parent="LN0sOUL7FmbtUSK-J04M-1" source="nLCzj5DxjsOhcZV8HZYW-11" target="nLCzj5DxjsOhcZV8HZYW-13" edge="1"><mxGeometry relative="1" as="geometry"/></mxCell><mxCell id="nLCzj5DxjsOhcZV8HZYW-11" value="POST+MESSAGE&lt;br&gt;=&amp;gt;SESSION" style="rounded=0;whiteSpace=wrap;html=1;" parent="LN0sOUL7FmbtUSK-J04M-1" vertex="1"><mxGeometry x="800" y="350" width="120" height="60" as="geometry"/></mxCell><mxCell id="nLCzj5DxjsOhcZV8HZYW-13" value="REDIRECT" style="rounded=0;whiteSpace=wrap;html=1;" parent="LN0sOUL7FmbtUSK-J04M-1" vertex="1"><mxGeometry x="960" y="350" width="120" height="60" as="geometry"/></mxCell><mxCell id="nLCzj5DxjsOhcZV8HZYW-22" value="FORM" style="rounded=0;whiteSpace=wrap;html=1;" parent="LN0sOUL7FmbtUSK-J04M-1" vertex="1"><mxGeometry x="800" y="480" width="120" height="60" as="geometry"/></mxCell><mxCell id="yyJXoSy9ZZGzqUCP-eUh-15" style="edgeStyle=orthogonalEdgeStyle;rounded=0;orthogonalLoop=1;jettySize=auto;html=1;exitX=0.5;exitY=1;exitDx=0;exitDy=0;" parent="LN0sOUL7FmbtUSK-J04M-1" source="yyJXoSy9ZZGzqUCP-eUh-5" target="yyJXoSy9ZZGzqUCP-eUh-14" edge="1"><mxGeometry relative="1" as="geometry"/></mxCell><mxCell id="yyJXoSy9ZZGzqUCP-eUh-5" value="FRIENDLYDATA" style="rounded=0;whiteSpace=wrap;html=1;" parent="LN0sOUL7FmbtUSK-J04M-1" vertex="1"><mxGeometry x="210" y="730" width="120" height="60" as="geometry"/></mxCell><mxCell id="yyJXoSy9ZZGzqUCP-eUh-13" style="edgeStyle=orthogonalEdgeStyle;rounded=0;orthogonalLoop=1;jettySize=auto;html=1;exitX=0.5;exitY=1;exitDx=0;exitDy=0;entryX=1;entryY=0.5;entryDx=0;entryDy=0;" parent="LN0sOUL7FmbtUSK-J04M-1" source="yyJXoSy9ZZGzqUCP-eUh-6" target="yyJXoSy9ZZGzqUCP-eUh-7" edge="1"><mxGeometry relative="1" as="geometry"/></mxCell><mxCell id="yyJXoSy9ZZGzqUCP-eUh-6" value="SESSIONDATA" style="rounded=0;whiteSpace=wrap;html=1;" parent="LN0sOUL7FmbtUSK-J04M-1" vertex="1"><mxGeometry x="365" y="680" width="120" height="60" as="geometry"/></mxCell><mxCell id="yyJXoSy9ZZGzqUCP-eUh-7" value="POSTDATA" style="rounded=0;whiteSpace=wrap;html=1;" parent="LN0sOUL7FmbtUSK-J04M-1" vertex="1"><mxGeometry x="210" y="980" width="120" height="60" as="geometry"/></mxCell><mxCell id="yyJXoSy9ZZGzqUCP-eUh-18" style="edgeStyle=orthogonalEdgeStyle;rounded=0;orthogonalLoop=1;jettySize=auto;html=1;exitX=0.5;exitY=1;exitDx=0;exitDy=0;entryX=0.5;entryY=0;entryDx=0;entryDy=0;" parent="LN0sOUL7FmbtUSK-J04M-1" source="yyJXoSy9ZZGzqUCP-eUh-10" target="yyJXoSy9ZZGzqUCP-eUh-17" edge="1"><mxGeometry relative="1" as="geometry"/></mxCell><mxCell id="yyJXoSy9ZZGzqUCP-eUh-10" value="DATABASEDATA" style="rounded=0;whiteSpace=wrap;html=1;" parent="LN0sOUL7FmbtUSK-J04M-1" vertex="1"><mxGeometry x="50" y="730" width="120" height="60" as="geometry"/></mxCell><mxCell id="yyJXoSy9ZZGzqUCP-eUh-16" style="edgeStyle=orthogonalEdgeStyle;rounded=0;orthogonalLoop=1;jettySize=auto;html=1;exitX=0.5;exitY=1;exitDx=0;exitDy=0;" parent="LN0sOUL7FmbtUSK-J04M-1" source="yyJXoSy9ZZGzqUCP-eUh-14" target="yyJXoSy9ZZGzqUCP-eUh-7" edge="1"><mxGeometry relative="1" as="geometry"/></mxCell><mxCell id="yyJXoSy9ZZGzqUCP-eUh-14" value="FRIENDLY2POST" style="rounded=0;whiteSpace=wrap;html=1;fillColor=#0050ef;fontColor=#ffffff;strokeColor=#001DBC;" parent="LN0sOUL7FmbtUSK-J04M-1" vertex="1"><mxGeometry x="210" y="860" width="120" height="60" as="geometry"/></mxCell><mxCell id="yyJXoSy9ZZGzqUCP-eUh-19" style="edgeStyle=orthogonalEdgeStyle;rounded=0;orthogonalLoop=1;jettySize=auto;html=1;exitX=0.5;exitY=1;exitDx=0;exitDy=0;entryX=0;entryY=0.5;entryDx=0;entryDy=0;" parent="LN0sOUL7FmbtUSK-J04M-1" source="yyJXoSy9ZZGzqUCP-eUh-17" target="yyJXoSy9ZZGzqUCP-eUh-7" edge="1"><mxGeometry relative="1" as="geometry"/></mxCell><mxCell id="yyJXoSy9ZZGzqUCP-eUh-17" value="&lt;span style=&quot;color: rgb(255 , 255 , 255)&quot;&gt;DATABASE2POST&lt;/span&gt;" style="rounded=0;whiteSpace=wrap;html=1;fillColor=#0050ef;fontColor=#ffffff;strokeColor=#001DBC;" parent="LN0sOUL7FmbtUSK-J04M-1" vertex="1"><mxGeometry x="50" y="860" width="120" height="60" as="geometry"/></mxCell><mxCell id="yyJXoSy9ZZGzqUCP-eUh-30" value="" style="rounded=0;whiteSpace=wrap;html=1;" parent="LN0sOUL7FmbtUSK-J04M-1" vertex="1"><mxGeometry x="1130" y="400" width="160" height="80" as="geometry"/></mxCell><mxCell id="yyJXoSy9ZZGzqUCP-eUh-33" value="" style="rounded=0;whiteSpace=wrap;html=1;" parent="LN0sOUL7FmbtUSK-J04M-1" vertex="1"><mxGeometry x="1130" y="180" width="160" height="200" as="geometry"/></mxCell><mxCell id="yyJXoSy9ZZGzqUCP-eUh-34" style="edgeStyle=orthogonalEdgeStyle;rounded=0;orthogonalLoop=1;jettySize=auto;html=1;exitX=0.5;exitY=1;exitDx=0;exitDy=0;entryX=0.5;entryY=0;entryDx=0;entryDy=0;" parent="LN0sOUL7FmbtUSK-J04M-1" source="yyJXoSy9ZZGzqUCP-eUh-35" target="yyJXoSy9ZZGzqUCP-eUh-38" edge="1"><mxGeometry relative="1" as="geometry"/></mxCell><mxCell id="yyJXoSy9ZZGzqUCP-eUh-35" value="ARR POST" style="rounded=0;whiteSpace=wrap;html=1;" parent="LN0sOUL7FmbtUSK-J04M-1" vertex="1"><mxGeometry x="1150" y="200" width="120" height="60" as="geometry"/></mxCell><mxCell id="yyJXoSy9ZZGzqUCP-eUh-36" style="edgeStyle=orthogonalEdgeStyle;rounded=0;orthogonalLoop=1;jettySize=auto;html=1;exitX=0.5;exitY=1;exitDx=0;exitDy=0;" parent="LN0sOUL7FmbtUSK-J04M-1" source="yyJXoSy9ZZGzqUCP-eUh-37" target="yyJXoSy9ZZGzqUCP-eUh-39" edge="1"><mxGeometry relative="1" as="geometry"/></mxCell><mxCell id="yyJXoSy9ZZGzqUCP-eUh-37" value="&lt;span style=&quot;color: rgb(255 , 255 , 255)&quot;&gt;FOREACH&lt;br&gt;&lt;/span&gt;SAVE" style="rounded=0;whiteSpace=wrap;html=1;" parent="LN0sOUL7FmbtUSK-J04M-1" vertex="1"><mxGeometry x="1150" y="590" width="120" height="60" as="geometry"/></mxCell><mxCell id="yyJXoSy9ZZGzqUCP-eUh-56" style="edgeStyle=orthogonalEdgeStyle;rounded=0;orthogonalLoop=1;jettySize=auto;html=1;exitX=0.5;exitY=1;exitDx=0;exitDy=0;" parent="LN0sOUL7FmbtUSK-J04M-1" source="yyJXoSy9ZZGzqUCP-eUh-38" target="yyJXoSy9ZZGzqUCP-eUh-43" edge="1"><mxGeometry relative="1" as="geometry"/></mxCell><mxCell id="yyJXoSy9ZZGzqUCP-eUh-38" value="FOREACH &lt;br&gt;FILTER" style="rounded=0;whiteSpace=wrap;html=1;fillColor=#60a917;fontColor=#ffffff;strokeColor=#2D7600;" parent="LN0sOUL7FmbtUSK-J04M-1" vertex="1"><mxGeometry x="1150" y="300" width="120" height="60" as="geometry"/></mxCell><mxCell id="yyJXoSy9ZZGzqUCP-eUh-39" value="&lt;span style=&quot;color: rgb(255 , 255 , 255)&quot;&gt;FOREACH&lt;br&gt;&lt;/span&gt;SAVEAFTER" style="rounded=0;whiteSpace=wrap;html=1;" parent="LN0sOUL7FmbtUSK-J04M-1" vertex="1"><mxGeometry x="1150" y="680" width="120" height="60" as="geometry"/></mxCell><mxCell id="yyJXoSy9ZZGzqUCP-eUh-40" style="edgeStyle=orthogonalEdgeStyle;rounded=0;orthogonalLoop=1;jettySize=auto;html=1;exitX=0.5;exitY=1;exitDx=0;exitDy=0;" parent="LN0sOUL7FmbtUSK-J04M-1" source="yyJXoSy9ZZGzqUCP-eUh-41" target="yyJXoSy9ZZGzqUCP-eUh-37" edge="1"><mxGeometry relative="1" as="geometry"/></mxCell><mxCell id="yyJXoSy9ZZGzqUCP-eUh-41" value="&lt;span style=&quot;color: rgb(255 , 255 , 255)&quot;&gt;FOREACH&lt;/span&gt;&lt;br&gt;SAVEBEFORE" style="rounded=0;whiteSpace=wrap;html=1;" parent="LN0sOUL7FmbtUSK-J04M-1" vertex="1"><mxGeometry x="1150" y="500" width="120" height="60" as="geometry"/></mxCell><mxCell id="yyJXoSy9ZZGzqUCP-eUh-42" style="edgeStyle=orthogonalEdgeStyle;rounded=0;orthogonalLoop=1;jettySize=auto;html=1;exitX=0.5;exitY=1;exitDx=0;exitDy=0;entryX=0.5;entryY=0;entryDx=0;entryDy=0;" parent="LN0sOUL7FmbtUSK-J04M-1" source="yyJXoSy9ZZGzqUCP-eUh-43" target="yyJXoSy9ZZGzqUCP-eUh-41" edge="1"><mxGeometry relative="1" as="geometry"/></mxCell><mxCell id="yyJXoSy9ZZGzqUCP-eUh-43" value="FOREACH&lt;br&gt;POST2DATABASE" style="rounded=0;whiteSpace=wrap;html=1;fillColor=#0050ef;fontColor=#ffffff;strokeColor=#001DBC;" parent="LN0sOUL7FmbtUSK-J04M-1" vertex="1"><mxGeometry x="1150" y="410" width="120" height="60" as="geometry"/></mxCell><mxCell id="yyJXoSy9ZZGzqUCP-eUh-44" value="Сохранение данных в datatable" style="text;html=1;strokeColor=none;fillColor=none;align=center;verticalAlign=middle;whiteSpace=wrap;rounded=0;" parent="LN0sOUL7FmbtUSK-J04M-1" vertex="1"><mxGeometry x="1150" y="130" width="120" height="30" as="geometry"/></mxCell><mxCell id="yyJXoSy9ZZGzqUCP-eUh-53" value="MESSAGE&lt;br&gt;=&amp;gt;AJAX" style="rounded=0;whiteSpace=wrap;html=1;" parent="LN0sOUL7FmbtUSK-J04M-1" vertex="1"><mxGeometry x="800" y="590" width="120" height="60" as="geometry"/></mxCell></root></mxGraphModel></diagram><diagram id="t8cRGvu6lsNoS-_d1n5o" name="datatable"><mxGraphModel dx="747" dy="747" grid="1" gridSize="10" guides="1" tooltips="1" connect="1" arrows="1" fold="1" page="1" pageScale="1" pageWidth="850" pageHeight="1100" math="0" shadow="0"><root><mxCell id="01aYdbRRMtDRDt-IyhgW-0"/><mxCell id="01aYdbRRMtDRDt-IyhgW-1" parent="01aYdbRRMtDRDt-IyhgW-0"/><mxCell id="bYlQGvTkArVrb3jfR0qo-2" value="" style="rounded=0;whiteSpace=wrap;html=1;" parent="01aYdbRRMtDRDt-IyhgW-1" vertex="1"><mxGeometry x="150" y="30" width="280" height="300" as="geometry"/></mxCell><mxCell id="01aYdbRRMtDRDt-IyhgW-3" value="text" style="rounded=0;whiteSpace=wrap;html=1;" parent="01aYdbRRMtDRDt-IyhgW-1" vertex="1"><mxGeometry x="230" y="220" width="120" height="60" as="geometry"/></mxCell><mxCell id="bYlQGvTkArVrb3jfR0qo-0" value="val = post" style="rounded=0;whiteSpace=wrap;html=1;" parent="01aYdbRRMtDRDt-IyhgW-1" vertex="1"><mxGeometry x="230" y="160" width="120" height="60" as="geometry"/></mxCell><mxCell id="bYlQGvTkArVrb3jfR0qo-1" value="order" style="rounded=0;whiteSpace=wrap;html=1;" parent="01aYdbRRMtDRDt-IyhgW-1" vertex="1"><mxGeometry x="230" y="100" width="120" height="60" as="geometry"/></mxCell><mxCell id="bYlQGvTkArVrb3jfR0qo-3" value="dt object cell" style="text;html=1;strokeColor=none;fillColor=none;align=left;verticalAlign=middle;whiteSpace=wrap;rounded=0;" parent="01aYdbRRMtDRDt-IyhgW-1" vertex="1"><mxGeometry x="160" y="40" width="110" height="30" as="geometry"/></mxCell></root></mxGraphModel></diagram></mxfile>